Birdsong.2012.BRRip.XviD.Ac3.Feel-Free

Genre:Drama | History | Romance
Language:English
IMDb:http://www.imdb.com/title/tt1127876/
Source:BluRay.x264.DTS-HDChina Thanks!
Encoder:Tony

Part 1:

Format : AVI
Format/Info : Audio Video Interleave
File size : 997 MiB
Duration : 1h 24mn
Overall bit rate : 1 649 Kbps

Codec ID/Hint : XviD
Duration : 1h 24mn
Bit rate : 1 191 Kbps
Width : 640 pixels
Height : 360 pixels
Display aspect ratio : 16:9
Frame rate : 25.000 fps
Color space : YUV
Chroma subsampling : 4:2:0
Bit depth : 8 bits
Scan type : Progressive
Compression mode : Lossy
Bits/(Pixel*Frame) : 0.207
Stream size : 720 MiB (72%)
Writing library : XviD 1.2.1 (UTC 2008-12-04)

Audio
ID : 1
Format : AC-3
Format/Info : Audio Coding 3
Mode extension : CM (complete main)
Codec ID : 2000
Duration : 1h 24mn
Bit rate mode : Constant
Bit rate : 448 Kbps
Channel(s) : 6 channels
Channel positions : Front: L C R, Side: L R, LFE
Sampling rate : 48.0 KHz
Bit depth : 16 bits
Compression mode : Lossy
Stream size : 271 MiB (27%)
Alignment : Aligned on interleaves
Interleave, duration : 40 ms (1.00 video frame)
Interleave, preload duration : 512 ms

Part 2:

Format : AVI
Format/Info : Audio Video Interleave
File size : 911 MiB
Duration : 1h 20mn
Overall bit rate : 1 580 Kbps

Codec ID/Hint : XviD
Duration : 1h 20mn
Bit rate : 1 123 Kbps
Width : 640 pixels
Height : 360 pixels
Display aspect ratio : 16:9
Frame rate : 25.000 fps
Color space : YUV
Chroma subsampling : 4:2:0
Bit depth : 8 bits
Scan type : Progressive
Compression mode : Lossy
Bits/(Pixel*Frame) : 0.195
Stream size : 647 MiB (71%)
Writing library : XviD 1.2.1 (UTC 2008-12-04)

Audio
ID : 1
Format : AC-3
Format/Info : Audio Coding 3
Mode extension : CM (complete main)
Codec ID : 2000
Duration : 1h 20mn
Bit rate mode : Constant
Bit rate : 448 Kbps
Channel(s) : 6 channels
Channel positions : Front: L C R, Side: L R, LFE
Sampling rate : 48.0 KHz
Bit depth : 16 bits
Compression mode : Lossy
Stream size : 258 MiB (28%)
Alignment : Aligned on interleaves
Interleave, duration : 40 ms (1.00 video frame)
Interleave, preload duration : 512 ms


Plot:
As an English soldier fights in the horrific trenches of northern France, he is haunted by the memories of his forbidden love affair with a French woman.


Poster:

 
http://i.imgur.com/r8a9u.jpg


Screens:

 
http://i.imgur.com/XWdyH.png

 
http://i.imgur.com/IXOOK.png




ENJOY!